<?xml version="1.0" encoding="UTF-8" standalone="no"?>
<svg
    version="1.1"
    id="Layer_1"
    xmlns="http://www.w3.org/2000/svg"
    xmlns:xlink="http://www.w3.org/1999/xlink"
    x="0px"
    y="0px"
    width="77.082px"
    height="37.761px"
    viewBox="0 0 77.082 37.761"
    enable-background="new 0 0 77.082 37.761"
    xml:space="preserve"
  >
    <g>
      <path
        fill="currentColor"
        d="M34.768,7.578c-6.02,0-10.899,4.879-10.899,10.898s4.88,10.899,10.899,10.899
		c6.019,0,10.898-4.88,10.898-10.899S40.787,7.578,34.768,7.578z M34.768,23.605c-2.829,0-5.129-2.301-5.129-5.129
		c0-2.828,2.3-5.128,5.129-5.128c2.828,0,5.128,2.301,5.128,5.128C39.896,21.305,37.595,23.605,34.768,23.605z"
      />
      <path
        fill="currentColor"
        d="M58.522,7.578c-1.854,0-3.58,0.463-5.106,1.279V2.885C53.416,1.292,52.101,0,50.508,0
		s-2.907,1.292-2.907,2.885v15.389c0,0.067,0,0.135,0,0.202c0,6.02,4.881,10.899,10.9,10.899c6.019,0,10.909-4.88,
    10.909-10.899
		S64.542,7.578,58.522,7.578z M53.393,18.545c0-2.768,2.345-5.197,5.129-5.197c2.829,0,5.118,2.301,5.118,5.128
		c0,2.828-2.311,5.129-5.139,5.129C55.697,23.605,53.43,21.342,53.393,18.545"
      />
      <path
        fill="currentColor"
        d="M21.656,16.717c-0.841-5.183-5.337-9.139-10.758-9.139C4.88,7.578,0,12.457,0,18.477
		s4.88,10.899,10.898,10.899c1.353,0,2.648-0.247,3.842-0.696c-0.312,0.606-0.687,1.156-1.132,1.622
		c-1.299,1.356-3.168,1.888-5.716,1.626c-1.586-0.165-3.001,0.991-3.165,2.576c-0.163,1.586,0.991,3.002,2.576,3.164
		c0.613,0.063,1.198,0.093,1.756,0.093c4.414,0,7.157-1.835,8.729-3.481c2.408-2.522,3.79-6.25,4.108-11.078
		c0.225-3.388-0.177-6.126-0.194-6.241C21.691,16.877,21.675,16.796,21.656,16.717z M10.898,23.605
		c-2.828,0-5.129-2.301-5.129-5.129c0-2.828,2.301-5.128,5.129-5.128c2.829,0,5.129,2.301,5.129,5.128
		C16.027,21.305,13.728,23.605,10.898,23.605z"
      />
      <path
        fill="currentColor"
        d="M74.205,7.905c-1.594,0-2.877,1.291-2.877,2.885v15.579c0,1.593,1.283,2.885,2.877,2.885
		s2.877-1.292,2.877-2.885V10.79C77.082,9.196,75.798,7.905,74.205,7.905z"
      />
    </g>
  </svg>
